<svg width="92" height="35" viewBox="0 0 92 35" fill="none" xmlns="http://www.w3.org/2000/svg">
<path d="M35.2184 16.087C34.7211 16.087 34.2841 15.9947 33.9076 15.81C33.5381 15.6181 33.2504 15.3517 33.0444 15.0107C32.8383 14.6626 32.7353 14.254 32.7353 13.7851V12.3145C32.7353 11.8385 32.8383 11.43 33.0444 11.0889C33.2504 10.7479 33.5381 10.485 33.9076 10.3003C34.2841 10.1085 34.7211 10.0126 35.2184 10.0126C35.9573 10.0126 36.547 10.2044 36.9874 10.5881C37.4279 10.9646 37.6588 11.4797 37.6801 12.1333H36.348C36.3267 11.8278 36.2166 11.5934 36.0177 11.43C35.8258 11.2595 35.5594 11.1742 35.2184 11.1742C34.8632 11.1742 34.5825 11.2737 34.3765 11.4726C34.1705 11.6644 34.0674 11.9415 34.0674 12.3038V13.7851C34.0674 14.1475 34.1705 14.4281 34.3765 14.627C34.5825 14.826 34.8632 14.9254 35.2184 14.9254C35.5594 14.9254 35.8258 14.8437 36.0177 14.6803C36.2166 14.5098 36.3267 14.2718 36.348 13.9663H37.6801C37.6588 14.6199 37.4279 15.1386 36.9874 15.5222C36.547 15.8988 35.9573 16.087 35.2184 16.087ZM40.7345 16.0764C40.2372 16.0764 39.8038 15.984 39.4344 15.7993C39.072 15.6075 38.7879 15.3411 38.5818 15C38.3829 14.6519 38.2834 14.2434 38.2834 13.7745V12.3251C38.2834 11.8562 38.3829 11.4513 38.5818 11.1103C38.7879 10.7621 39.072 10.4957 39.4344 10.311C39.8038 10.1192 40.2372 10.0232 40.7345 10.0232C41.2389 10.0232 41.6723 10.1192 42.0347 10.311C42.397 10.4957 42.6776 10.7621 42.8766 11.1103C43.0826 11.4513 43.1856 11.8527 43.1856 12.3145V13.7745C43.1856 14.2434 43.0826 14.6519 42.8766 15C42.6776 15.3411 42.397 15.6075 42.0347 15.7993C41.6723 15.984 41.2389 16.0764 40.7345 16.0764ZM40.7345 14.9148C41.0897 14.9148 41.3633 14.8189 41.5551 14.627C41.754 14.4281 41.8535 14.1439 41.8535 13.7745V12.3251C41.8535 11.9486 41.754 11.6644 41.5551 11.4726C41.3633 11.2808 41.0897 11.1849 40.7345 11.1849C40.3864 11.1849 40.1129 11.2808 39.9139 11.4726C39.715 11.6644 39.6155 11.9486 39.6155 12.3251V13.7745C39.6155 14.1439 39.715 14.4281 39.9139 14.627C40.1129 14.8189 40.3864 14.9148 40.7345 14.9148ZM45.7711 16.087C45.1885 16.087 44.716 15.8846 44.3537 15.4796C43.9985 15.0746 43.8209 14.5311 43.8209 13.8491V12.2612C43.8209 11.5721 43.9985 11.025 44.3537 10.62C44.7089 10.2151 45.1814 10.0126 45.7711 10.0126C46.2542 10.0126 46.6378 10.1511 46.922 10.4282C47.2062 10.6982 47.3483 11.0712 47.3483 11.5472L47.0499 11.2381H47.359L47.3163 9.84208V8.20091H48.6484V15.9805H47.3483V14.8615H47.0499L47.3483 14.5524C47.3483 15.0285 47.2062 15.405 46.922 15.6821C46.6378 15.9521 46.2542 16.087 45.7711 16.087ZM46.24 14.9361C46.581 14.9361 46.8439 14.8366 47.0286 14.6377C47.2204 14.4317 47.3163 14.1475 47.3163 13.7851V12.3145C47.3163 11.9522 47.2204 11.6715 47.0286 11.4726C46.8439 11.2666 46.581 11.1635 46.24 11.1635C45.899 11.1635 45.6325 11.263 45.4407 11.4619C45.2489 11.6609 45.153 11.945 45.153 12.3145V13.7851C45.153 14.1546 45.2489 14.4388 45.4407 14.6377C45.6325 14.8366 45.899 14.9361 46.24 14.9361ZM51.82 16.087C51.3227 16.087 50.8893 15.9911 50.5199 15.7993C50.1505 15.6075 49.8627 15.3411 49.6567 15C49.4578 14.6519 49.3583 14.2469 49.3583 13.7851V12.3145C49.3583 11.8527 49.4578 11.4513 49.6567 11.1103C49.8627 10.7621 50.1505 10.4922 50.5199 10.3003C50.8893 10.1085 51.3227 10.0126 51.82 10.0126C52.3103 10.0126 52.7365 10.1085 53.0989 10.3003C53.4683 10.4922 53.7525 10.7621 53.9514 11.1103C54.1575 11.4513 54.2605 11.8527 54.2605 12.3145V13.3695H50.6478V13.7851C50.6478 14.1972 50.7473 14.5098 50.9462 14.723C51.1451 14.929 51.44 15.032 51.8307 15.032C52.1291 15.032 52.3707 14.9823 52.5554 14.8828C52.7401 14.7762 52.8573 14.6235 52.9071 14.4246H54.2179C54.1184 14.929 53.8484 15.3339 53.4079 15.6394C52.9745 15.9378 52.4453 16.087 51.82 16.087ZM52.971 12.6235V12.3038C52.971 11.8989 52.8751 11.5898 52.6833 11.3767C52.4914 11.1564 52.2037 11.0463 51.82 11.0463C51.4364 11.0463 51.1451 11.1564 50.9462 11.3767C50.7473 11.5969 50.6478 11.9095 50.6478 12.3145V12.5383L53.0669 12.517L52.971 12.6235Z" fill="#E4E4E4"/>
<path d="M39.0923 26.375C38.7086 26.375 38.3711 26.2968 38.0799 26.1405C37.7957 25.9842 37.5719 25.764 37.4085 25.4798C37.2451 25.1885 37.1634 24.8546 37.1634 24.4781V19.7997H35.2877V18.5954H38.4955V24.4781C38.4955 24.6912 38.5559 24.8617 38.6766 24.9896C38.8045 25.1104 38.975 25.1708 39.1882 25.1708H40.9572V26.375H39.0923ZM43.0844 26.4816C42.4806 26.4816 42.0045 26.3217 41.6564 26.002C41.3083 25.6823 41.1342 25.2525 41.1342 24.7125C41.1342 24.137 41.3261 23.693 41.7097 23.3804C42.0933 23.0678 42.6369 22.9115 43.3402 22.9115H44.8002V22.4106C44.8002 22.1264 44.7078 21.9062 44.5231 21.7499C44.3384 21.5865 44.0862 21.5048 43.7665 21.5048C43.4752 21.5048 43.2336 21.5687 43.0418 21.6966C42.85 21.8245 42.7363 21.9986 42.7008 22.2188H41.4006C41.4646 21.6646 41.7133 21.2242 42.1466 20.8973C42.58 20.5705 43.1342 20.4071 43.8091 20.4071C44.5267 20.4071 45.0915 20.5883 45.5036 20.9506C45.9227 21.3059 46.1323 21.789 46.1323 22.4V26.375H44.8428V25.3519H44.6297L44.8428 25.0642C44.8428 25.4976 44.683 25.8422 44.3633 26.0979C44.0436 26.3537 43.6173 26.4816 43.0844 26.4816ZM43.5214 25.4798C43.8979 25.4798 44.2034 25.3839 44.4379 25.1921C44.6794 25.0003 44.8002 24.7516 44.8002 24.4461V23.7321H43.3615C43.0915 23.7321 42.8749 23.8102 42.7115 23.9665C42.548 24.1228 42.4663 24.3289 42.4663 24.5846C42.4663 24.8617 42.5587 25.082 42.7434 25.2454C42.9352 25.4017 43.1946 25.4798 43.5214 25.4798ZM49.7728 26.4816C49.2897 26.4816 48.9061 26.3466 48.6219 26.0766C48.3377 25.7995 48.1956 25.423 48.1956 24.947L48.494 25.256H48.1956V26.375H46.8955V18.5954H48.2276V20.2366L48.1849 21.6327H48.494L48.1956 21.9417C48.1956 21.4657 48.3377 21.0927 48.6219 20.8227C48.9061 20.5457 49.2897 20.4071 49.7728 20.4071C50.3625 20.4071 50.835 20.6096 51.1902 21.0146C51.5454 21.4195 51.723 21.9666 51.723 22.6557V24.2436C51.723 24.9257 51.5454 25.4692 51.1902 25.8741C50.835 26.2791 50.3625 26.4816 49.7728 26.4816ZM49.3039 25.3306C49.6449 25.3306 49.9114 25.2312 50.1032 25.0322C50.295 24.8333 50.3909 24.5491 50.3909 24.1797V22.709C50.3909 22.3396 50.295 22.0554 50.1032 21.8565C49.9114 21.6575 49.6449 21.5581 49.3039 21.5581C48.97 21.5581 48.7071 21.6611 48.5153 21.8671C48.3235 22.0661 48.2276 22.3467 48.2276 22.709V24.1797C48.2276 24.542 48.3235 24.8262 48.5153 25.0322C48.7071 25.2312 48.97 25.3306 49.3039 25.3306Z" fill="#E4E4E4"/>
<path d="M14.4475 29.4922H21.4446V34.0215H0.0432434V29.4922H8.73172V5.66895L-0.00265503 12.1729V6.12695L7.67996 0.584961H14.4475V29.4922Z" fill="#E4E4E4"/>
<path d="M77.1879 8.9668C77.4916 9.57747 77.7653 10.1728 78.0082 10.7529C78.2512 11.3026 78.4327 11.7308 78.5541 12.0361C78.6452 11.7308 78.8122 11.3026 79.0551 10.7529C79.298 10.1728 79.5718 9.57746 79.8754 8.9668L84.1108 0.584961H90.3051L81.6518 16.7529L90.852 34.0215H84.475L79.7846 24.7686C79.481 24.1579 79.1917 23.5626 78.9184 22.9824C78.6755 22.4024 78.4939 21.9442 78.3725 21.6084C78.251 21.9443 78.0685 22.4023 77.8256 22.9824C77.5828 23.5625 77.3098 24.158 77.0063 24.7686L72.269 34.0215H66.0746L75.2748 16.8906L66.6215 0.584961H72.9975L77.1879 8.9668Z" fill="#E4E4E4"/>
<path fill-rule="evenodd" clip-rule="evenodd" d="M32.8231 0.584961C28.6095 0.584961 25.1612 3.86519 24.8877 8.0138H23.2772V8.94283H19.3016V11.3311H22.2175V12.9247H21.2894V13.3222H20.3613V13.9856L24.8682 13.9862V13.3211H24.8702V14.7805H24.8682V14.5159H21.2894V14.7805H19.9642V16.508H18.9045V17.9675H23.6766V18.4977H24.8702V19.2928H24.0714V20.2216H24.8702L22.0859 20.2218V21.2826H20.7584V23.01H17.0483V23.5408H17.7109V24.07H23.6756V23.6709H24.8674V22.6101H24.8702V24.0697H23.9421V24.6004H24.4708V24.8658H20.0981V26.3253H23.9421V27.6517H25.0291C25.7056 30.9887 28.4671 33.5678 31.8933 33.9672V34.0205H32.7321C32.7624 34.0209 32.7928 34.0211 32.8231 34.0211H53.8984C58.2907 34.0211 61.8514 30.4568 61.8514 26.0601V25.7948H62.248V24.9987H61.8514V24.0687H64.1032V23.4053H61.8514V22.8764H62.5115V22.3469H65.0318V21.8133H68.4775V21.2826H65.0318V21.1489H67.4155V20.6182H64.7664V19.6921H69.0092V18.6307H64.7664V18.4966H62.248V17.9662H61.8514V17.0361H64.2359V17.1678H63.5733V17.9639H67.5498V17.1678H66.2242V16.508H64.6338V14.7805H62.777L67.2846 14.7805V13.9844H65.0316V11.8639H63.5735V10.5374H62.777V9.34162H64.6342V8.67821H62.5143V8.0138H61.8339C61.5604 3.86519 58.1121 0.584961 53.8985 0.584961H32.8231ZM33.7494 3.90203L54.0002 3.90313C56.5154 3.95732 58.5377 6.01522 58.5377 8.54593V24.3366H58.5357V25.398H58.5377V26.0601C58.5377 28.6248 56.4606 30.704 53.8984 30.704H32.8231C30.261 30.704 28.1839 28.6248 28.1839 26.0601V8.54593C28.1839 6.03396 30.1763 3.98781 32.6656 3.90466H33.7494V3.90203ZM63.1739 20.8874H61.8514V20.8849H63.1739V20.8874Z" fill="#12875E"/>
<path d="M70.5973 15.5789H66.6208V16.7727H69.4044V16.375H70.5973V15.5789Z" fill="#12875E"/>
<path d="M21.5548 18.4966H19.9642V20.0888H21.5548V18.4966Z" fill="#12875E"/>
<path d="M17.577 20.3536H19.1676V21.9458H17.577V20.3536Z" fill="#12875E"/>
<path d="M68.0776 12.5238H69.6682V14.116H68.0776V12.5238Z" fill="#12875E"/>
<path d="M17.0483 13.4528H18.904V15.3104H17.0483V13.4528Z" fill="#12875E"/>
<path d="M64.8985 10.0059H67.8146V11.0673H64.8985V10.0059Z" fill="#12875E"/>
<mask id="mask0_1612_203" style="mask-type:alpha" maskUnits="userSpaceOnUse" x="17" y="0" width="54" height="35">
<path fill-rule="evenodd" clip-rule="evenodd" d="M32.8239 0.584473C28.6102 0.584473 25.1619 3.8647 24.8884 8.01331H23.2779V8.94235H19.3023V11.3306H22.2182V12.9242H21.2901V13.3217H20.362V13.9852L24.869 13.9857V13.3206H24.8709V14.78H24.869V14.5154H21.2901V14.78H19.9649V16.5075H18.9052V17.967H23.6773V18.4972H24.8709V19.2923H24.0722V20.2211H24.8709L22.0866 20.2213V21.2821H20.7592V23.0096H17.049V23.5403H17.7116V24.0695H23.6764V23.6704H24.8682V22.6096H24.8709V24.0692H23.9428V24.5999H24.4715V24.8653H20.0988V26.3249H23.9428V27.6512H25.0299C25.7063 30.9882 28.4679 33.5674 31.894 33.9667V34.0201H32.7329C32.7632 34.0204 32.7935 34.0206 32.8239 34.0206H53.8992C58.2915 34.0206 61.8521 30.4563 61.8521 26.0596V25.7943H62.2487V24.9982H61.8521V24.0682H64.1039V23.4048H61.8521V22.8759H62.5122V22.3464H65.0326V21.8128H68.4782V21.2821H65.0326V21.1484H67.4163V20.6177H64.7672V19.6916H69.0099V18.6302H64.7672V18.4961H62.2487V17.9658H61.8521V17.0356H64.2367V17.1673H63.5741V17.9634H67.5505V17.1673H66.2249V16.5075H64.6345V14.78H62.7778L67.2853 14.78V13.9839H65.0323V11.8635H63.5742V10.5369H62.7778V9.34113H64.6349V8.67772H62.5151V8.01331H61.8347C61.5611 3.8647 58.1129 0.584473 53.8992 0.584473H32.8239ZM33.7501 3.90155L54.001 3.90264C56.5161 3.95683 58.5384 6.01473 58.5384 8.54545V24.3361H58.5365V25.3976H58.5384V26.0596C58.5384 28.6244 56.4614 30.7035 53.8992 30.7035H32.8239C30.2617 30.7035 28.1846 28.6244 28.1846 26.0596V8.54545C28.1846 6.03347 30.1771 3.98732 32.6663 3.90417H33.7501V3.90155ZM63.1747 20.8869H61.8521V20.8844H63.1747V20.8869Z" fill="#12875E"/>
<path d="M70.598 15.5784H66.6216V16.7722H69.4051V16.3745H70.598V15.5784Z" fill="#12875E"/>
<path d="M21.5555 18.4961H19.9649V20.0883H21.5555V18.4961Z" fill="#12875E"/>
<path d="M17.5778 20.3531H19.1684V21.9453H17.5778V20.3531Z" fill="#12875E"/>
<path d="M68.0784 12.5233H69.669V14.1155H68.0784V12.5233Z" fill="#12875E"/>
<path d="M17.049 13.4523H18.9047V15.3099H17.049V13.4523Z" fill="#12875E"/>
<path d="M64.8993 10.0054H67.8153V11.0669H64.8993V10.0054Z" fill="#12875E"/>
</mask>
<g mask="url(#mask0_1612_203)">
<g style="mix-blend-mode:overlay" opacity="0.6">
<rect x="-15.3642" y="0.710449" width="118.371" height="0.256215" fill="#E4E4E4"/>
<rect x="-15.3642" y="1.2229" width="118.371" height="0.256215" fill="#E4E4E4"/>
<rect x="-15.3642" y="1.73535" width="118.371" height="0.256215" fill="#E4E4E4"/>
<rect x="-15.3642" y="2.2478" width="118.371" height="0.256215" fill="#E4E4E4"/>
<rect x="-15.3642" y="2.76001" width="118.371" height="0.256215" fill="#E4E4E4"/>
<rect x="-15.3642" y="3.27246" width="118.371" height="0.256215" fill="#E4E4E4"/>
<rect x="-15.3642" y="3.78491" width="118.371" height="0.256215" fill="#E4E4E4"/>
<rect x="-15.3642" y="4.29736" width="118.371" height="0.256215" fill="#E4E4E4"/>
<rect x="-15.3642" y="4.80981" width="118.371" height="0.256215" fill="#E4E4E4"/>
<rect x="-15.3642" y="5.32227" width="118.371" height="0.256215" fill="#E4E4E4"/>
<rect x="-15.3642" y="5.83472" width="118.371" height="0.256215" fill="#E4E4E4"/>
<rect x="-15.3642" y="6.34717" width="118.371" height="0.256215" fill="#E4E4E4"/>
<rect x="-15.3642" y="6.85962" width="118.371" height="0.256215" fill="#E4E4E4"/>
<rect x="-15.3642" y="7.37207" width="118.371" height="0.256215" fill="#E4E4E4"/>
<rect x="-15.3642" y="7.88452" width="118.371" height="0.256215" fill="#E4E4E4"/>
<rect x="-15.3642" y="8.39697" width="118.371" height="0.256215" fill="#E4E4E4"/>
<rect x="-15.3642" y="8.90918" width="118.371" height="0.256215" fill="#E4E4E4"/>
<rect x="-15.3642" y="9.42163" width="118.371" height="0.256215" fill="#E4E4E4"/>
<rect x="-15.3642" y="9.93408" width="118.371" height="0.256215" fill="#E4E4E4"/>
<rect x="-15.3642" y="10.4465" width="118.371" height="0.256215" fill="#E4E4E4"/>
<rect x="-15.3642" y="10.959" width="118.371" height="0.256215" fill="#E4E4E4"/>
<rect x="-15.3642" y="11.4714" width="118.371" height="0.256215" fill="#E4E4E4"/>
<rect x="-15.3642" y="11.9839" width="118.371" height="0.256215" fill="#E4E4E4"/>
<rect x="-15.3642" y="12.4963" width="118.371" height="0.256215" fill="#E4E4E4"/>
<rect x="-15.3642" y="13.0088" width="118.371" height="0.256215" fill="#E4E4E4"/>
<rect x="-15.3642" y="13.5212" width="118.371" height="0.256215" fill="#E4E4E4"/>
<rect x="-15.3642" y="14.0337" width="118.371" height="0.256215" fill="#E4E4E4"/>
<rect x="-15.3642" y="14.5459" width="118.371" height="0.256215" fill="#E4E4E4"/>
<rect x="-15.3642" y="15.0583" width="118.371" height="0.256215" fill="#E4E4E4"/>
<rect x="-15.3642" y="15.5708" width="118.371" height="0.256215" fill="#E4E4E4"/>
<rect x="-15.3642" y="16.0833" width="118.371" height="0.256215" fill="#E4E4E4"/>
<rect x="-15.3642" y="16.5957" width="118.371" height="0.256215" fill="#E4E4E4"/>
<rect x="-15.3642" y="17.1082" width="118.371" height="0.256215" fill="#E4E4E4"/>
<rect x="-15.3642" y="17.6206" width="118.371" height="0.256215" fill="#E4E4E4"/>
<rect x="-15.3642" y="18.1331" width="118.371" height="0.256215" fill="#E4E4E4"/>
<rect x="-15.3642" y="18.6455" width="118.371" height="0.256215" fill="#E4E4E4"/>
<rect x="-15.3642" y="19.158" width="118.371" height="0.256215" fill="#E4E4E4"/>
<rect x="-15.3642" y="19.6704" width="118.371" height="0.256215" fill="#E4E4E4"/>
<rect x="-15.3642" y="20.1829" width="118.371" height="0.256215" fill="#E4E4E4"/>
<rect x="-15.3642" y="20.6951" width="118.371" height="0.256215" fill="#E4E4E4"/>
<rect x="-15.3642" y="21.2075" width="118.371" height="0.256215" fill="#E4E4E4"/>
<rect x="-15.3642" y="21.72" width="118.371" height="0.256215" fill="#E4E4E4"/>
<rect x="-15.3642" y="22.2324" width="118.371" height="0.256215" fill="#E4E4E4"/>
<rect x="-15.3642" y="22.7449" width="118.371" height="0.256215" fill="#E4E4E4"/>
<rect x="-15.3642" y="23.2573" width="118.371" height="0.256215" fill="#E4E4E4"/>
<rect x="-15.3642" y="23.7698" width="118.371" height="0.256215" fill="#E4E4E4"/>
<rect x="-15.3642" y="24.2822" width="118.371" height="0.256215" fill="#E4E4E4"/>
<rect x="-15.3642" y="24.7947" width="118.371" height="0.256215" fill="#E4E4E4"/>
<rect x="-15.3642" y="25.3071" width="118.371" height="0.256215" fill="#E4E4E4"/>
<rect x="-15.3642" y="25.8196" width="118.371" height="0.256215" fill="#E4E4E4"/>
<rect x="-15.3642" y="26.332" width="118.371" height="0.256215" fill="#E4E4E4"/>
<rect x="-15.3642" y="26.8445" width="118.371" height="0.256215" fill="#E4E4E4"/>
<rect x="-15.3642" y="27.3567" width="118.371" height="0.256215" fill="#E4E4E4"/>
<rect x="-15.3642" y="27.8691" width="118.371" height="0.256215" fill="#E4E4E4"/>
<rect x="-15.3642" y="28.3816" width="118.371" height="0.256215" fill="#E4E4E4"/>
<rect x="-15.3642" y="28.894" width="118.371" height="0.256215" fill="#E4E4E4"/>
<rect x="-15.3642" y="29.4065" width="118.371" height="0.256215" fill="#E4E4E4"/>
<rect x="-15.3642" y="29.9189" width="118.371" height="0.256215" fill="#E4E4E4"/>
<rect x="-15.3642" y="30.4314" width="118.371" height="0.256215" fill="#E4E4E4"/>
<rect x="-15.3642" y="30.9438" width="118.371" height="0.256215" fill="#E4E4E4"/>
<rect x="-15.3642" y="31.4563" width="118.371" height="0.256215" fill="#E4E4E4"/>
<rect x="-15.3642" y="31.9688" width="118.371" height="0.256215" fill="#E4E4E4"/>
<rect x="-15.3642" y="32.4812" width="118.371" height="0.256215" fill="#E4E4E4"/>
<rect x="-15.3642" y="32.9937" width="118.371" height="0.256215" fill="#E4E4E4"/>
<rect x="-15.3642" y="33.5061" width="118.371" height="0.256215" fill="#E4E4E4"/>
<rect x="-15.3642" y="34.0183" width="118.371" height="0.256215" fill="#E4E4E4"/>
</g>
</g>
</svg>
